<svg width="100" height="100" viewBox="0 0 100 100" fill="none" xmlns="http://www.w3.org/2000/svg">
<path d="M18.5077 65.4421L2.64418 65.4421C1.16283 65.4421 1.01658e-07 64.2793 2.31162e-07 62.798L3.92935e-06 20.4956C4.05885e-06 19.0143 1.16283 17.8515 2.64419 17.8515L18.5077 17.8515C19.9891 17.8515 21.1504 19.0143 21.1504 20.4956L21.1504 62.798C21.1519 64.2793 19.9891 65.4421 18.5077 65.4421Z" fill="#918EF4"/>
<path d="M94.9984 60.4311C94.9984 64.7396 92.0403 69.0998 86.3907 69.0998L60.7765 69.0998C64.4357 75.6455 65.5116 84.8521 62.968 91.5883C61.0996 96.5429 57.5288 99.434 52.9079 99.7281L52.8333 99.7342C49.8264 99.9186 47.2233 97.6661 46.9734 94.6638C46.315 87.9824 43.3874 76.1652 39.1917 71.9695C35.659 68.4368 32.6354 66.957 27.6229 64.5064C26.8974 64.1513 26.1049 63.7642 25.2667 63.3466C25.282 63.1652 25.2911 62.9839 25.2911 62.798L25.2911 20.9269C25.8962 20.7197 26.4936 20.5139 27.0803 20.3127C35.3527 17.4613 42.5019 15 53.4292 15L74.1376 15C79.7887 15 82.7453 19.3618 82.7453 23.6686C82.7453 24.9473 82.4862 26.229 81.9726 27.4025C83.8548 27.7408 85.5022 28.6461 86.723 30.0314C88.1083 31.6058 88.8719 33.6982 88.8719 35.9233C88.8719 37.1974 88.6128 38.4791 88.1007 39.6496C92.6377 40.4329 94.9999 44.3268 94.9999 48.1765C94.9999 50.4092 94.2044 52.6571 92.653 54.303C94.2014 55.9505 94.9984 58.1985 94.9984 60.4311Z" fill="#918EF4"/>
</svg>
