<svg width="100" height="100" viewBox="0 0 100 100" fill="none" xmlns="http://www.w3.org/2000/svg">
<path d="M19.1504 62.8L19.1504 62.798L19.1504 20.4956C19.1504 20.2902 19.0741 20.1361 18.9698 20.0317C18.8656 19.9274 18.7123 19.8515 18.5077 19.8515L2.64419 19.8515C2.43951 19.8515 2.28556 19.9275 2.1808 20.0322C2.07605 20.137 2 20.291 2 20.4956L2 62.798C2 63.0026 2.07604 63.1566 2.1808 63.2613C2.28555 63.3661 2.4395 63.4421 2.64418 63.4421L18.5077 63.4421C18.7125 63.4421 18.8663 63.3661 18.9707 63.2616C19.075 63.1573 19.1506 63.004 19.1504 62.8Z" stroke="#979797" stroke-width="4"/>
<path d="M59.0307 70.0757L57.3671 67.0998L60.7765 67.0998L86.3907 67.0998C90.7184 67.0998 92.9984 63.8656 92.9984 60.4311C92.9984 58.6538 92.3604 56.912 91.1956 55.6728L89.9064 54.3011L91.1976 52.9312C92.3629 51.695 93 49.9548 93 48.1765C93 45.0865 91.1422 42.2043 87.7604 41.6204L85.2454 41.1862L86.2684 38.8479C86.6663 37.9385 86.8719 36.9306 86.8719 35.9233C86.8719 34.1527 86.2651 32.5386 85.2215 31.3527C84.3149 30.3243 83.0801 29.6336 81.6188 29.371L79.1242 28.9225L80.1404 26.6006C80.5397 25.6884 80.7453 24.6806 80.7453 23.6686C80.7453 20.2352 78.4664 17 74.1376 17L53.4292 17C42.8603 17 35.9827 19.3596 27.7321 22.2036L27.729 22.2046C27.5846 22.2541 27.4385 22.3043 27.2911 22.3549L27.2911 62.1166C27.6387 62.2874 27.9762 62.4526 28.3027 62.6124C28.3694 62.645 28.4356 62.6774 28.5013 62.7096C28.5016 62.7098 28.5019 62.7099 28.5022 62.71L28.5918 62.7539C33.5459 65.1759 36.834 66.7834 40.6059 70.5553C43.0776 73.027 44.9722 77.4511 46.3192 81.7918C47.696 86.2287 48.6207 90.9861 48.9638 94.4676L48.9652 94.4827L48.9665 94.4978C49.1257 96.4106 50.7794 97.8468 52.6929 97.739L52.7452 97.7347L52.763 97.7333L52.7809 97.7321C56.4842 97.4964 59.4552 95.2352 61.0967 90.8826L61.097 90.8818C63.4036 84.7731 62.4441 76.1816 59.0307 70.0757Z" stroke="#979797" stroke-width="4"/>
</svg>
