<svg width="30" height="30" viewBox="0 0 30 30" fill="none" xmlns="http://www.w3.org/2000/svg">
<g clip-path="url(#clip0)">
<path d="M15.723 14.8878C15.723 15.2868 15.3996 15.6108 15 15.6108C14.601 15.6108 14.277 15.2868 14.277 14.8878V9.58683C14.277 9.18663 14.601 8.86383 15 8.86383C15.3996 8.86383 15.723 9.18723 15.723 9.58683V14.8878Z" fill="rgba(68, 72, 174, 0.75)"/>
<path d="M25.422 14.8878C25.422 15.2868 25.0992 15.6108 24.699 15.6108H5.301C4.9014 15.6108 4.578 15.2868 4.578 14.8878C4.578 14.4876 4.9014 14.1648 5.301 14.1648H24.699C25.0992 14.1648 25.422 14.4876 25.422 14.8878Z" fill="rgba(68, 72, 174, 0.75)"/>
<path d="M6.024 20.1888C6.024 20.5884 5.7012 20.9118 5.301 20.9118C4.9014 20.9118 4.578 20.5884 4.578 20.1888V14.8878C4.578 14.4876 4.9014 14.1648 5.301 14.1648C5.7012 14.1648 6.024 14.4882 6.024 14.8878V20.1888Z" fill="rgba(68, 72, 174, 0.75)"/>
<path d="M25.422 20.1888C25.422 20.5884 25.0992 20.9118 24.699 20.9118C24.3 20.9118 23.976 20.5884 23.976 20.1888V14.8878C23.976 14.4876 24.3 14.1648 24.699 14.1648C25.0992 14.1648 25.422 14.4882 25.422 14.8878V20.1888Z" fill="rgba(68, 72, 174, 0.75)"/>
<path d="M17.4096 0.309021H12.591C10.9962 0.309021 9.69958 1.60682 9.69958 3.20042V7.41782C9.69958 9.01142 10.9968 10.3092 12.591 10.3092H17.4096C19.0044 10.3092 20.301 9.01142 20.301 7.41782V3.20042C20.301 1.60682 19.0044 0.309021 17.4096 0.309021Z" fill="rgba(68, 72, 174, 0.75)"/>
<path d="M7.7106 19.692H2.8914C1.2978 19.692 0 20.9892 0 22.5834V26.7996C0 28.3944 1.2978 29.6904 2.8914 29.6904H7.71C9.3048 29.6904 10.6014 28.3944 10.6014 26.7996V22.5834C10.602 20.9892 9.3048 19.692 7.7106 19.692Z" fill="rgba(68, 72, 174, 0.75)"/>
<path d="M27.1087 19.692H22.2901C20.6953 19.692 19.3987 20.9892 19.3987 22.5828V26.799C19.3987 28.3938 20.6953 29.6898 22.2901 29.6898H27.1087C28.7035 29.6898 30.0001 28.3938 30.0001 26.799V22.5828C30.0001 20.9892 28.7035 19.692 27.1087 19.692Z" fill="rgba(68, 72, 174, 0.75)"/>
</g>
<defs>
<clipPath id="clip0">
<rect width="30" height="30" fill="white"/>
</clipPath>
</defs>
</svg>
