<svg width="100" height="100" viewBox="0 0 100 100" fill="none" xmlns="http://www.w3.org/2000/svg">
<path d="M20.9859 44.4354V44.4375V87.8078C20.9859 88.2235 20.6892 88.5187 20.2765 88.5187H4.01245C3.59827 88.5187 3.30151 88.222 3.30151 87.8078V44.4375C3.30151 44.0233 3.59827 43.7266 4.01245 43.7266H20.2765C20.6911 43.7266 20.9863 44.0233 20.9859 44.4354Z" stroke="#979797" stroke-width="4"/>
<path d="M61.8667 37.0007L60.2031 39.9766H63.6124H89.8734C94.3437 39.9766 96.6984 43.3209 96.6984 46.8641C96.6984 48.6978 96.0402 50.4964 94.8363 51.7772L93.5471 53.1489L94.8383 54.5188C96.0427 55.7966 96.6999 57.5935 96.6999 59.4282C96.6999 62.6153 94.7825 65.5959 91.2862 66.1995L88.7712 66.6338L89.7942 68.972C90.205 69.911 90.4171 70.9513 90.4171 71.9907C90.4171 73.8175 89.791 75.4845 88.7125 76.7101C87.7751 77.7735 86.4987 78.487 84.9898 78.7582L82.4953 79.2066L83.5115 81.5285C83.9237 82.4704 84.1359 83.5105 84.1359 84.5548C84.1359 88.0969 81.7823 91.4423 77.3109 91.4423H56.0796C45.2349 91.4423 38.1768 89.0205 29.7173 86.1046L29.7142 86.1035C29.5551 86.0489 29.3938 85.9936 29.2312 85.9377V45.1047C29.5973 44.9246 29.9527 44.7507 30.2961 44.5827L30.5002 44.4828L30.5011 44.4823L30.5907 44.4386C35.6712 41.9547 39.0358 40.3098 42.897 36.4487C45.4216 33.924 47.3612 29.3988 48.7419 24.9492C50.1525 20.4034 51.0998 15.5293 51.4512 11.9634L51.4527 11.9483L51.454 11.9332C51.6195 9.94464 53.3388 8.4516 55.3282 8.564L55.3825 8.56843L55.4003 8.56988L55.4182 8.57102C59.2381 8.81418 62.2994 11.1484 63.9879 15.6261L63.9883 15.6269C66.3591 21.9056 65.3724 30.7296 61.8667 37.0007Z" stroke="#979797" stroke-width="4"/>
</svg>
