<svg width="100" height="100" viewBox="0 0 100 100" fill="none" xmlns="http://www.w3.org/2000/svg">
<path d="M20.2765 41.7266H4.01245C2.4937 41.7266 1.30151 42.9188 1.30151 44.4375V87.8078C1.30151 89.3266 2.4937 90.5187 4.01245 90.5187H20.2765C21.7953 90.5187 22.9859 89.3266 22.9859 87.8078V44.4375C22.9875 42.9188 21.7953 41.7266 20.2765 41.7266Z" fill="#918EF4"/>
<path d="M98.6984 46.8641C98.6984 42.4469 95.6656 37.9766 89.8734 37.9766H63.6124C67.364 31.2657 68.4671 21.8266 65.8593 14.9204C63.9437 9.84068 60.2827 6.87662 55.5452 6.57506L55.4687 6.56881C52.3859 6.37975 49.7171 8.68912 49.4609 11.7672C48.7859 18.6172 45.7843 30.7329 41.4827 35.0344C37.8609 38.6563 34.7609 40.1735 29.6218 42.686C28.8781 43.0501 28.0656 43.4469 27.2062 43.8751C27.2218 44.061 27.2312 44.2469 27.2312 44.4376V87.3657C27.8515 87.5782 28.464 87.7891 29.0655 87.9954C37.5468 90.9188 44.8765 93.4423 56.0796 93.4423H77.3109C83.1046 93.4423 86.1359 88.9704 86.1359 84.5548C86.1359 83.2438 85.8702 81.9298 85.3437 80.7266C87.2734 80.3798 88.9624 79.4516 90.214 78.0313C91.6343 76.4173 92.4171 74.2719 92.4171 71.9907C92.4171 70.6844 92.1515 69.3704 91.6265 68.1704C96.278 67.3673 98.6999 63.3751 98.6999 59.4282C98.6999 57.1391 97.8843 54.8344 96.2937 53.1469C97.8812 51.4579 98.6984 49.1532 98.6984 46.8641Z" fill="#918EF4"/>
</svg>
