<svg width="30" height="31" viewBox="0 0 30 31" fill="none" xmlns="http://www.w3.org/2000/svg">
<path d="M17.442 6.19244H19.7264C20.1628 6.19244 20.5166 6.5463 20.5166 6.98272V13.7531C20.5166 14.1935 20.1628 14.5474 19.7264 14.5474H17.442C17.0017 14.5474 16.6478 14.1935 16.6478 13.7531V6.98272C16.6478 6.5463 17.0017 6.19244 17.442 6.19244Z" fill="#979797"/>
<path d="M21.9439 3.18469H24.2282C24.6646 3.18469 25.0185 3.53855 25.0185 3.97497V13.7532C25.0185 14.1935 24.6646 14.5474 24.2282 14.5474H21.9439C21.5074 14.5474 21.1497 14.1935 21.1497 13.7532V3.97497C21.1497 3.53855 21.5074 3.18469 21.9439 3.18469Z" fill="#979797"/>
<path d="M26.5322 0H28.8166C29.2569 0 29.6108 0.353855 29.6108 0.790276V13.7532C29.6108 14.1935 29.2569 14.5474 28.8166 14.5474H26.5322C26.0958 14.5474 25.7419 14.1935 25.7419 13.7532V0.790276C25.7419 0.353855 26.0958 0 26.5322 0Z" fill="#979797"/>
<path d="M25.624 26.5155C28.1678 23.9717 29.7995 20.5235 30 16.6941H15.0123C14.5759 16.6941 14.222 16.3402 14.222 15.9038V0.919983C1.31809 1.58838 -4.78001 17.331 4.40449 26.5155C10.2628 32.3738 19.7657 32.3738 25.624 26.5155Z" fill="#979797"/>
</svg>
